<svg xmlns="http://www.w3.org/2000/svg" xmlns:xlink="http://www.w3.org/1999/xlink" width="500" zoomAndPan="magnify" viewBox="0 0 375 374.999991" height="500" preserveAspectRatio="xMidYMid meet" version="1.0"><defs><g/><clipPath id="2558ced17f"><path d="M 26 206 L 112 206 L 112 243 L 26 243 Z M 26 206 " clip-rule="nonzero"/></clipPath><clipPath id="514803698f"><path d="M 27.710938 205.628906 L 112.332031 236.066406 L 109.53125 243.855469 L 24.90625 213.417969 Z M 27.710938 205.628906 " clip-rule="nonzero"/></clipPath><clipPath id="c4fe6cfbc5"><path d="M 31.605469 207.027344 L 108.433594 234.664062 C 109.464844 235.035156 110.308594 235.800781 110.777344 236.792969 C 111.246094 237.785156 111.296875 238.925781 110.925781 239.957031 C 110.554688 240.992188 109.789062 241.835938 108.796875 242.300781 C 107.800781 242.769531 106.664062 242.824219 105.632812 242.453125 L 28.804688 214.820312 C 27.769531 214.445312 26.925781 213.679688 26.460938 212.6875 C 25.992188 211.695312 25.9375 210.554688 26.308594 209.523438 C 26.679688 208.488281 27.445312 207.648438 28.441406 207.179688 C 29.433594 206.710938 30.570312 206.65625 31.605469 207.027344 Z M 31.605469 207.027344 " clip-rule="nonzero"/></clipPath><clipPath id="868e65bbc2"><path d="M 1 222 L 89 222 L 89 259 L 1 259 Z M 1 222 " clip-rule="nonzero"/></clipPath><clipPath id="f8ee9e6eac"><path d="M 3.347656 221.222656 L 89.78125 252.347656 L 86.980469 260.136719 L 0.542969 229.011719 Z M 3.347656 221.222656 " clip-rule="nonzero"/></clipPath><clipPath id="05aa966f43"><path d="M 7.242188 222.625 L 85.859375 250.933594 C 86.894531 251.304688 87.738281 252.074219 88.203125 253.066406 C 88.671875 254.058594 88.726562 255.199219 88.351562 256.230469 C 87.980469 257.261719 87.214844 258.105469 86.222656 258.574219 C 85.226562 259.039062 84.089844 259.09375 83.054688 258.722656 L 4.4375 230.414062 C 3.402344 230.042969 2.5625 229.273438 2.09375 228.28125 C 1.625 227.289062 1.574219 226.148438 1.945312 225.117188 C 2.316406 224.085938 3.082031 223.242188 4.078125 222.773438 C 5.070312 222.304688 6.207031 222.253906 7.242188 222.625 Z M 7.242188 222.625 " clip-rule="nonzero"/></clipPath><clipPath id="3a9912b61c"><path d="M 1.050781 78.9375 L 8.1875 78.9375 L 8.1875 230.277344 L 1.050781 230.277344 Z M 1.050781 78.9375 " clip-rule="nonzero"/></clipPath><clipPath id="c6e72c7419"><path d="M 4.621094 78.9375 C 5.566406 78.9375 6.472656 79.3125 7.140625 79.980469 C 7.8125 80.648438 8.1875 81.558594 8.1875 82.503906 L 8.1875 226.699219 C 8.1875 227.644531 7.8125 228.550781 7.140625 229.21875 C 6.472656 229.890625 5.566406 230.265625 4.621094 230.265625 C 3.671875 230.265625 2.765625 229.890625 2.097656 229.21875 C 1.425781 228.550781 1.050781 227.644531 1.050781 226.699219 L 1.050781 82.503906 C 1.050781 81.558594 1.425781 80.648438 2.097656 79.980469 C 2.765625 79.3125 3.671875 78.9375 4.621094 78.9375 Z M 4.621094 78.9375 " clip-rule="nonzero"/></clipPath><clipPath id="10e319925f"><path d="M 79.765625 103.210938 L 86.902344 103.210938 L 86.902344 258.59375 L 79.765625 258.59375 Z M 79.765625 103.210938 " clip-rule="nonzero"/></clipPath><clipPath id="d1ebde1558"><path d="M 83.332031 103.210938 C 84.28125 103.210938 85.1875 103.589844 85.855469 104.257812 C 86.527344 104.925781 86.902344 105.832031 86.902344 106.78125 L 86.902344 255.023438 C 86.902344 255.96875 86.527344 256.878906 85.855469 257.546875 C 85.1875 258.214844 84.28125 258.59375 83.332031 258.59375 C 82.386719 258.59375 81.480469 258.214844 80.8125 257.546875 C 80.140625 256.878906 79.765625 255.96875 79.765625 255.023438 L 79.765625 106.78125 C 79.765625 105.832031 80.140625 104.925781 80.8125 104.257812 C 81.480469 103.589844 82.386719 103.210938 83.332031 103.210938 Z M 83.332031 103.210938 " clip-rule="nonzero"/></clipPath><clipPath id="2e58c7cedd"><path d="M 1 77 L 87 77 L 87 110 L 1 110 Z M 1 77 " clip-rule="nonzero"/></clipPath><clipPath id="759bd3fee3"><path d="M 1.050781 83.867188 L 3.167969 77.054688 L 87.769531 103.339844 L 85.652344 110.152344 Z M 1.050781 83.867188 " clip-rule="nonzero"/></clipPath><clipPath id="dbb7e78da4"><path d="M 2.109375 80.460938 C 2.390625 79.558594 3.015625 78.800781 3.855469 78.363281 C 4.691406 77.921875 5.671875 77.832031 6.574219 78.113281 L 84.355469 102.277344 C 85.261719 102.558594 86.015625 103.1875 86.457031 104.027344 C 86.898438 104.863281 86.988281 105.839844 86.707031 106.746094 C 86.425781 107.648438 85.796875 108.402344 84.960938 108.84375 C 84.121094 109.285156 83.144531 109.375 82.238281 109.09375 L 4.457031 84.925781 C 3.554688 84.648438 2.796875 84.019531 2.359375 83.179688 C 1.917969 82.34375 1.828125 81.363281 2.109375 80.460938 Z M 2.109375 80.460938 " clip-rule="nonzero"/></clipPath><clipPath id="b6f76088cf"><path d="M 13.84375 69.636719 L 20.980469 69.636719 L 20.980469 220.976562 L 13.84375 220.976562 Z M 13.84375 69.636719 " clip-rule="nonzero"/></clipPath><clipPath id="ffd538ffd8"><path d="M 17.414062 69.636719 C 18.359375 69.636719 19.265625 70.011719 19.9375 70.683594 C 20.605469 71.351562 20.980469 72.257812 20.980469 73.207031 L 20.980469 217.398438 C 20.980469 218.347656 20.605469 219.253906 19.9375 219.921875 C 19.265625 220.589844 18.359375 220.96875 17.414062 220.96875 C 16.464844 220.96875 15.558594 220.589844 14.890625 219.921875 C 14.222656 219.253906 13.84375 218.347656 13.84375 217.398438 L 13.84375 73.207031 C 13.84375 72.257812 14.222656 71.351562 14.890625 70.683594 C 15.558594 70.011719 16.464844 69.636719 17.414062 69.636719 Z M 17.414062 69.636719 " clip-rule="nonzero"/></clipPath><clipPath id="d2e6808a1f"><path d="M 92.851562 93.609375 L 99.988281 93.609375 L 99.988281 249.300781 L 92.851562 249.300781 Z M 92.851562 93.609375 " clip-rule="nonzero"/></clipPath><clipPath id="6a189e1a2c"><path d="M 96.421875 93.609375 C 97.367188 93.609375 98.273438 93.984375 98.945312 94.65625 C 99.613281 95.324219 99.988281 96.230469 99.988281 97.179688 L 99.988281 245.726562 C 99.988281 246.671875 99.613281 247.578125 98.945312 248.25 C 98.273438 248.917969 97.367188 249.292969 96.421875 249.292969 C 95.476562 249.292969 94.566406 248.917969 93.898438 248.25 C 93.230469 247.578125 92.851562 246.671875 92.851562 245.726562 L 92.851562 97.179688 C 92.851562 96.230469 93.230469 95.324219 93.898438 94.65625 C 94.566406 93.984375 95.476562 93.609375 96.421875 93.609375 Z M 96.421875 93.609375 " clip-rule="nonzero"/></clipPath><clipPath id="218d8335e9"><path d="M 14 68 L 100 68 L 100 100 L 14 100 Z M 14 68 " clip-rule="nonzero"/></clipPath><clipPath id="ae0235c5d2"><path d="M 13.84375 74.34375 L 15.960938 67.527344 L 100.5625 93.8125 L 98.445312 100.628906 Z M 13.84375 74.34375 " clip-rule="nonzero"/></clipPath><clipPath id="bf3c81bcc9"><path d="M 14.902344 70.933594 C 15.183594 70.03125 15.8125 69.277344 16.648438 68.835938 C 17.484375 68.394531 18.464844 68.304688 19.367188 68.585938 L 97.152344 92.753906 C 98.054688 93.035156 98.808594 93.660156 99.25 94.5 C 99.691406 95.335938 99.78125 96.316406 99.5 97.21875 C 99.21875 98.121094 98.589844 98.878906 97.753906 99.316406 C 96.914062 99.757812 95.9375 99.847656 95.035156 99.566406 L 17.25 75.402344 C 16.347656 75.121094 15.589844 74.492188 15.152344 73.65625 C 14.710938 72.816406 14.621094 71.839844 14.902344 70.933594 Z M 14.902344 70.933594 " clip-rule="nonzero"/></clipPath><clipPath id="7b6999052b"><path d="M 26.933594 60.914062 L 34.070312 60.914062 L 34.070312 212.253906 L 26.933594 212.253906 Z M 26.933594 60.914062 " clip-rule="nonzero"/></clipPath><clipPath id="f048e937cd"><path d="M 30.5 60.914062 C 31.445312 60.914062 32.355469 61.289062 33.023438 61.957031 C 33.691406 62.625 34.070312 63.535156 34.070312 64.480469 L 34.070312 208.675781 C 34.070312 209.621094 33.691406 210.527344 33.023438 211.195312 C 32.355469 211.867188 31.445312 212.242188 30.5 212.242188 C 29.554688 212.242188 28.648438 211.867188 27.976562 211.195312 C 27.308594 210.527344 26.933594 209.621094 26.933594 208.675781 L 26.933594 64.480469 C 26.933594 63.535156 27.308594 62.625 27.976562 61.957031 C 28.648438 61.289062 29.554688 60.914062 30.5 60.914062 Z M 30.5 60.914062 " clip-rule="nonzero"/></clipPath><clipPath id="3ab6264348"><path d="M 105.941406 84.085938 L 113.078125 84.085938 L 113.078125 241.445312 L 105.941406 241.445312 Z M 105.941406 84.085938 " clip-rule="nonzero"/></clipPath><clipPath id="92cc21be62"><path d="M 109.507812 84.085938 C 110.457031 84.085938 111.363281 84.460938 112.03125 85.128906 C 112.699219 85.796875 113.078125 86.707031 113.078125 87.652344 L 113.078125 237.851562 C 113.078125 238.796875 112.699219 239.703125 112.03125 240.375 C 111.363281 241.042969 110.457031 241.417969 109.507812 241.417969 C 108.5625 241.417969 107.65625 241.042969 106.984375 240.375 C 106.316406 239.703125 105.941406 238.796875 105.941406 237.851562 L 105.941406 87.652344 C 105.941406 86.707031 106.316406 85.796875 106.984375 85.128906 C 107.65625 84.460938 108.5625 84.085938 109.507812 84.085938 Z M 109.507812 84.085938 " clip-rule="nonzero"/></clipPath><clipPath id="55d3528350"><path d="M 27 59 L 113 59 L 113 92 L 27 92 Z M 27 59 " clip-rule="nonzero"/></clipPath><clipPath id="ea31f965b8"><path d="M 26.929688 65.617188 L 29.046875 58.800781 L 113.648438 85.085938 L 111.53125 91.902344 Z M 26.929688 65.617188 " clip-rule="nonzero"/></clipPath><clipPath id="4fa84951d4"><path d="M 27.988281 62.210938 C 28.269531 61.304688 28.898438 60.550781 29.734375 60.109375 C 30.574219 59.667969 31.550781 59.578125 32.457031 59.859375 L 110.238281 84.027344 C 111.140625 84.308594 111.898438 84.9375 112.335938 85.773438 C 112.777344 86.613281 112.867188 87.589844 112.585938 88.492188 C 112.304688 89.398438 111.679688 90.152344 110.839844 90.59375 C 110.003906 91.035156 109.023438 91.121094 108.121094 90.84375 L 30.339844 66.675781 C 29.433594 66.394531 28.679688 65.765625 28.238281 64.929688 C 27.796875 64.089844 27.707031 63.113281 27.988281 62.210938 Z M 27.988281 62.210938 " clip-rule="nonzero"/></clipPath><clipPath id="3c37505568"><path d="M 1 205 L 35 205 L 35 231 L 1 231 Z M 1 205 " clip-rule="nonzero"/></clipPath><clipPath id="6e54d43387"><path d="M 4.042969 231.398438 L -0.00390625 225.519531 L 31.445312 203.855469 L 35.492188 209.730469 Z M 4.042969 231.398438 " clip-rule="nonzero"/></clipPath><clipPath id="b7466a9cfa"><path d="M 2.019531 228.460938 C 1.480469 227.679688 1.277344 226.71875 1.449219 225.789062 C 1.621094 224.859375 2.152344 224.035156 2.933594 223.496094 L 28.484375 205.894531 C 29.265625 205.355469 30.226562 205.152344 31.15625 205.320312 C 32.085938 205.492188 32.910156 206.027344 33.449219 206.808594 C 33.984375 207.585938 34.191406 208.546875 34.019531 209.476562 C 33.847656 210.410156 33.3125 211.234375 32.535156 211.769531 L 6.980469 229.375 C 6.203125 229.910156 5.242188 230.117188 4.3125 229.945312 C 3.378906 229.773438 2.554688 229.238281 2.019531 228.460938 Z M 2.019531 228.460938 " clip-rule="nonzero"/></clipPath><clipPath id="80c8d6dd2a"><path d="M 81 235 L 113 235 L 113 260 L 81 260 Z M 81 235 " clip-rule="nonzero"/></clipPath><clipPath id="c25b6c940c"><path d="M 83.808594 260.636719 L 79.757812 254.761719 L 110.015625 233.917969 L 114.0625 239.792969 Z M 83.808594 260.636719 " clip-rule="nonzero"/></clipPath><clipPath id="d6266976c1"><path d="M 81.785156 257.699219 C 81.246094 256.917969 81.042969 255.957031 81.214844 255.027344 C 81.382812 254.097656 81.917969 253.273438 82.699219 252.734375 L 107.0625 235.953125 C 107.839844 235.414062 108.800781 235.210938 109.730469 235.378906 C 110.660156 235.550781 111.488281 236.085938 112.023438 236.867188 C 112.558594 237.644531 112.765625 238.605469 112.59375 239.535156 C 112.421875 240.46875 111.886719 241.292969 111.109375 241.828125 L 86.746094 258.613281 C 85.96875 259.148438 85.007812 259.355469 84.074219 259.183594 C 83.144531 259.011719 82.320312 258.476562 81.785156 257.699219 Z M 81.785156 257.699219 " clip-rule="nonzero"/></clipPath></defs><g clip-path="url(#2558ced17f)"><g clip-path="url(#514803698f)"><g clip-path="url(#c4fe6cfbc5)"><path fill="#7ed957" d="M 27.710938 205.628906 L 112.332031 236.066406 L 109.53125 243.855469 L 24.90625 213.417969 Z M 27.710938 205.628906 " fill-opacity="1" fill-rule="nonzero"/></g></g></g><g clip-path="url(#868e65bbc2)"><g clip-path="url(#f8ee9e6eac)"><g clip-path="url(#05aa966f43)"><path fill="#ff3131" d="M 3.347656 221.222656 L 89.753906 252.335938 L 86.949219 260.125 L 0.542969 229.011719 Z M 3.347656 221.222656 " fill-opacity="1" fill-rule="nonzero"/></g></g></g><g clip-path="url(#3a9912b61c)"><g clip-path="url(#c6e72c7419)"><path fill="#000000" d="M 1.050781 78.9375 L 8.1875 78.9375 L 8.1875 230.277344 L 1.050781 230.277344 Z M 1.050781 78.9375 " fill-opacity="1" fill-rule="nonzero"/></g></g><g clip-path="url(#10e319925f)"><g clip-path="url(#d1ebde1558)"><path fill="#000000" d="M 79.765625 103.210938 L 86.902344 103.210938 L 86.902344 258.59375 L 79.765625 258.59375 Z M 79.765625 103.210938 " fill-opacity="1" fill-rule="nonzero"/></g></g><g clip-path="url(#2e58c7cedd)"><g clip-path="url(#759bd3fee3)"><g clip-path="url(#dbb7e78da4)"><path fill="#000000" d="M 1.050781 83.867188 L 3.167969 77.054688 L 87.769531 103.339844 L 85.652344 110.152344 Z M 1.050781 83.867188 " fill-opacity="1" fill-rule="nonzero"/></g></g></g><g clip-path="url(#b6f76088cf)"><g clip-path="url(#ffd538ffd8)"><path fill="#000000" d="M 13.84375 69.636719 L 20.980469 69.636719 L 20.980469 220.976562 L 13.84375 220.976562 Z M 13.84375 69.636719 " fill-opacity="1" fill-rule="nonzero"/></g></g><g clip-path="url(#d2e6808a1f)"><g clip-path="url(#6a189e1a2c)"><path fill="#000000" d="M 92.851562 93.609375 L 99.988281 93.609375 L 99.988281 249.300781 L 92.851562 249.300781 Z M 92.851562 93.609375 " fill-opacity="1" fill-rule="nonzero"/></g></g><g clip-path="url(#218d8335e9)"><g clip-path="url(#ae0235c5d2)"><g clip-path="url(#bf3c81bcc9)"><path fill="#000000" d="M 13.84375 74.34375 L 15.960938 67.527344 L 100.5625 93.8125 L 98.445312 100.628906 Z M 13.84375 74.34375 " fill-opacity="1" fill-rule="nonzero"/></g></g></g><g clip-path="url(#7b6999052b)"><g clip-path="url(#f048e937cd)"><path fill="#000000" d="M 26.933594 60.914062 L 34.070312 60.914062 L 34.070312 212.253906 L 26.933594 212.253906 Z M 26.933594 60.914062 " fill-opacity="1" fill-rule="nonzero"/></g></g><g clip-path="url(#3ab6264348)"><g clip-path="url(#92cc21be62)"><path fill="#000000" d="M 105.941406 84.085938 L 113.078125 84.085938 L 113.078125 241.417969 L 105.941406 241.417969 Z M 105.941406 84.085938 " fill-opacity="1" fill-rule="nonzero"/></g></g><g clip-path="url(#55d3528350)"><g clip-path="url(#ea31f965b8)"><g clip-path="url(#4fa84951d4)"><path fill="#000000" d="M 26.929688 65.617188 L 29.046875 58.800781 L 113.648438 85.085938 L 111.53125 91.902344 Z M 26.929688 65.617188 " fill-opacity="1" fill-rule="nonzero"/></g></g></g><g fill="#000000" fill-opacity="1"><g transform="translate(117.889156, 200.821943)"><g><path d="M 36.875 -5.203125 C 32.851562 -1.859375 28.265625 -0.1875 23.109375 -0.1875 C 17.265625 -0.1875 12.269531 -2.257812 8.125 -6.40625 C 3.976562 -10.550781 1.90625 -15.546875 1.90625 -21.390625 C 1.90625 -27.273438 3.976562 -32.289062 8.125 -36.4375 C 12.269531 -40.582031 17.265625 -42.65625 23.109375 -42.65625 C 28.304688 -42.65625 32.894531 -40.960938 36.875 -37.578125 L 30.53125 -31.296875 C 28.375 -32.941406 25.898438 -33.765625 23.109375 -33.765625 C 19.722656 -33.765625 16.820312 -32.554688 14.40625 -30.140625 C 12 -27.734375 10.796875 -24.816406 10.796875 -21.390625 C 10.796875 -18.003906 12 -15.101562 14.40625 -12.6875 C 16.820312 -10.28125 19.722656 -9.078125 23.109375 -9.078125 C 25.898438 -9.078125 28.375 -9.898438 30.53125 -11.546875 Z M 36.875 -5.203125 "/></g></g></g><g fill="#000000" fill-opacity="1"><g transform="translate(158.573353, 200.821943)"><g><path d="M 10.796875 -27.796875 C 11.515625 -29.828125 12.71875 -31.242188 14.40625 -32.046875 C 16.050781 -32.847656 18.523438 -33.25 21.828125 -33.25 L 21.828125 -24.1875 C 18.617188 -24.1875 15.929688 -23.082031 13.765625 -20.875 C 11.785156 -18.9375 10.796875 -16.800781 10.796875 -14.46875 L 10.796875 0 L 1.90625 0 L 1.90625 -32.6875 L 10.796875 -32.6875 Z M 10.796875 -27.796875 "/></g></g></g><g fill="#000000" fill-opacity="1"><g transform="translate(181.359038, 200.821943)"><g><path d="M 16.953125 -32.6875 C 21.472656 -32.726562 25.320312 -31.160156 28.5 -27.984375 C 31.71875 -24.773438 33.328125 -20.925781 33.328125 -16.4375 C 33.367188 -11.90625 31.800781 -8.054688 28.625 -4.890625 C 25.445312 -1.671875 21.617188 -0.0390625 17.140625 0 C 12.609375 0.0390625 8.734375 -1.523438 5.515625 -4.703125 C 2.304688 -7.867188 0.703125 -11.71875 0.703125 -16.25 C 0.660156 -20.78125 2.222656 -24.628906 5.390625 -27.796875 C 8.566406 -31.015625 12.421875 -32.644531 16.953125 -32.6875 Z M 22.71875 -10.65625 C 24.28125 -12.226562 25.0625 -14.132812 25.0625 -16.375 C 25.0625 -18.570312 24.257812 -20.476562 22.65625 -22.09375 C 21.050781 -23.613281 19.148438 -24.375 16.953125 -24.375 C 14.742188 -24.375 12.859375 -23.59375 11.296875 -22.03125 C 9.734375 -20.375 8.953125 -18.46875 8.953125 -16.3125 C 8.953125 -14.113281 9.753906 -12.207031 11.359375 -10.59375 C 12.921875 -9.03125 14.828125 -8.25 17.078125 -8.25 C 19.359375 -8.332031 21.238281 -9.132812 22.71875 -10.65625 Z M 22.71875 -10.65625 "/></g></g></g><g fill="#000000" fill-opacity="1"><g transform="translate(215.378892, 200.821943)"><g><path d="M 15.109375 0 C 12.910156 0 10.984375 -0.335938 9.328125 -1.015625 C 8.015625 -1.484375 6.660156 -2.351562 5.265625 -3.625 C 2.859375 -5.863281 1.757812 -8.695312 1.96875 -12.125 L 1.96875 -12.828125 L 9.078125 -12.6875 L 9.640625 -12.6875 L 9.640625 -12.1875 C 9.679688 -11.125 9.914062 -10.253906 10.34375 -9.578125 C 11.0625 -8.359375 12.648438 -7.75 15.109375 -7.75 C 17.140625 -7.75 18.597656 -7.976562 19.484375 -8.4375 C 19.953125 -8.65625 20.269531 -8.929688 20.4375 -9.265625 C 20.519531 -9.390625 20.5625 -9.515625 20.5625 -9.640625 L 20.625 -9.96875 C 20.625 -10.851562 19.925781 -11.570312 18.53125 -12.125 C 17.976562 -12.332031 17.34375 -12.5 16.625 -12.625 C 16.070312 -12.757812 15.457031 -12.867188 14.78125 -12.953125 C 12.25 -13.203125 10.132812 -13.707031 8.4375 -14.46875 C 6.75 -15.144531 5.351562 -16.078125 4.25 -17.265625 C 2.726562 -18.992188 1.96875 -20.984375 1.96875 -23.234375 C 1.96875 -24.628906 2.222656 -25.914062 2.734375 -27.09375 C 3.109375 -28.03125 3.613281 -28.859375 4.25 -29.578125 C 6.539062 -32.203125 10.203125 -33.515625 15.234375 -33.515625 C 18.234375 -33.515625 20.769531 -32.921875 22.84375 -31.734375 C 24.457031 -30.847656 25.75 -29.640625 26.71875 -28.109375 C 27.476562 -26.972656 28.007812 -25.644531 28.3125 -24.125 C 28.394531 -23.613281 28.457031 -23.125 28.5 -22.65625 L 28.5 -21.328125 L 20.8125 -21.328125 L 20.8125 -22.28125 C 20.769531 -22.445312 20.75 -22.613281 20.75 -22.78125 C 20.625 -23.25 20.457031 -23.628906 20.25 -23.921875 C 19.3125 -25.191406 17.640625 -25.828125 15.234375 -25.828125 C 11.679688 -25.828125 9.90625 -25.085938 9.90625 -23.609375 C 9.90625 -22.847656 10.328125 -22.234375 11.171875 -21.765625 C 12.054688 -21.210938 13.554688 -20.8125 15.671875 -20.5625 C 20.535156 -20.050781 24.070312 -18.507812 26.28125 -15.9375 C 27.757812 -14.195312 28.5 -12.207031 28.5 -9.96875 L 28.5 -9.515625 L 28.4375 -8.953125 C 28.4375 -8.398438 28.375 -7.890625 28.25 -7.421875 C 27.90625 -6.066406 27.269531 -4.863281 26.34375 -3.8125 C 25.28125 -2.539062 23.796875 -1.585938 21.890625 -0.953125 C 19.992188 -0.316406 17.734375 0 15.109375 0 Z M 15.109375 0 "/></g></g></g><g fill="#000000" fill-opacity="1"><g transform="translate(245.780966, 200.821943)"><g><path d="M 15.109375 0 C 12.910156 0 10.984375 -0.335938 9.328125 -1.015625 C 8.015625 -1.484375 6.660156 -2.351562 5.265625 -3.625 C 2.859375 -5.863281 1.757812 -8.695312 1.96875 -12.125 L 1.96875 -12.828125 L 9.078125 -12.6875 L 9.640625 -12.6875 L 9.640625 -12.1875 C 9.679688 -11.125 9.914062 -10.253906 10.34375 -9.578125 C 11.0625 -8.359375 12.648438 -7.75 15.109375 -7.75 C 17.140625 -7.75 18.597656 -7.976562 19.484375 -8.4375 C 19.953125 -8.65625 20.269531 -8.929688 20.4375 -9.265625 C 20.519531 -9.390625 20.5625 -9.515625 20.5625 -9.640625 L 20.625 -9.96875 C 20.625 -10.851562 19.925781 -11.570312 18.53125 -12.125 C 17.976562 -12.332031 17.34375 -12.5 16.625 -12.625 C 16.070312 -12.757812 15.457031 -12.867188 14.78125 -12.953125 C 12.25 -13.203125 10.132812 -13.707031 8.4375 -14.46875 C 6.75 -15.144531 5.351562 -16.078125 4.25 -17.265625 C 2.726562 -18.992188 1.96875 -20.984375 1.96875 -23.234375 C 1.96875 -24.628906 2.222656 -25.914062 2.734375 -27.09375 C 3.109375 -28.03125 3.613281 -28.859375 4.25 -29.578125 C 6.539062 -32.203125 10.203125 -33.515625 15.234375 -33.515625 C 18.234375 -33.515625 20.769531 -32.921875 22.84375 -31.734375 C 24.457031 -30.847656 25.75 -29.640625 26.71875 -28.109375 C 27.476562 -26.972656 28.007812 -25.644531 28.3125 -24.125 C 28.394531 -23.613281 28.457031 -23.125 28.5 -22.65625 L 28.5 -21.328125 L 20.8125 -21.328125 L 20.8125 -22.28125 C 20.769531 -22.445312 20.75 -22.613281 20.75 -22.78125 C 20.625 -23.25 20.457031 -23.628906 20.25 -23.921875 C 19.3125 -25.191406 17.640625 -25.828125 15.234375 -25.828125 C 11.679688 -25.828125 9.90625 -25.085938 9.90625 -23.609375 C 9.90625 -22.847656 10.328125 -22.234375 11.171875 -21.765625 C 12.054688 -21.210938 13.554688 -20.8125 15.671875 -20.5625 C 20.535156 -20.050781 24.070312 -18.507812 26.28125 -15.9375 C 27.757812 -14.195312 28.5 -12.207031 28.5 -9.96875 L 28.5 -9.515625 L 28.4375 -8.953125 C 28.4375 -8.398438 28.375 -7.890625 28.25 -7.421875 C 27.90625 -6.066406 27.269531 -4.863281 26.34375 -3.8125 C 25.28125 -2.539062 23.796875 -1.585938 21.890625 -0.953125 C 19.992188 -0.316406 17.734375 0 15.109375 0 Z M 15.109375 0 "/></g></g></g><g fill="#000000" fill-opacity="1"><g transform="translate(276.183041, 200.821943)"><g><path d="M 0.953125 -41.25 L 10.859375 -41.25 L 10.859375 0 L 0.953125 0 Z M 0.953125 -41.25 "/></g></g></g><g fill="#000000" fill-opacity="1"><g transform="translate(287.988439, 200.821943)"><g><path d="M 25.453125 -32.6875 L 25.453125 -23.796875 L 18.15625 -23.796875 L 18.15625 0 L 9.265625 0 L 9.265625 -23.796875 L 1.90625 -23.796875 L 1.90625 -32.6875 L 9.265625 -32.6875 L 9.265625 -44.109375 L 18.15625 -44.109375 L 18.15625 -32.6875 Z M 25.453125 -32.6875 "/></g></g></g><g fill="#004aad" fill-opacity="1"><g transform="translate(313.419944, 200.821943)"><g><path d="M 10.796875 0 L 1.90625 0 L 1.90625 -8.890625 L 10.796875 -8.890625 Z M 10.796875 0 "/></g></g></g><g fill="#ff3131" fill-opacity="1"><g transform="translate(326.119234, 200.821943)"><g><path d="M 25.390625 -32.8125 L 34.265625 -32.8125 L 34.265625 0 L 25.390625 0 L 25.390625 -3.6875 C 23.566406 -1.3125 20.816406 -0.125 17.140625 -0.125 C 12.648438 -0.0820312 8.796875 -1.648438 5.578125 -4.828125 C 2.367188 -7.992188 0.742188 -11.84375 0.703125 -16.375 C 0.660156 -20.863281 2.222656 -24.710938 5.390625 -27.921875 C 8.566406 -31.140625 12.421875 -32.769531 16.953125 -32.8125 C 20.671875 -32.8125 23.484375 -31.609375 25.390625 -29.203125 Z M 22.71875 -10.796875 C 24.28125 -12.359375 25.0625 -14.257812 25.0625 -16.5 C 25.0625 -18.78125 24.257812 -20.6875 22.65625 -22.21875 C 21.050781 -23.820312 19.171875 -24.582031 17.015625 -24.5 C 14.765625 -24.5 12.859375 -23.71875 11.296875 -22.15625 C 9.734375 -20.582031 8.953125 -18.675781 8.953125 -16.4375 C 8.953125 -14.238281 9.753906 -12.332031 11.359375 -10.71875 C 12.921875 -9.15625 14.828125 -8.375 17.078125 -8.375 C 19.359375 -8.457031 21.238281 -9.265625 22.71875 -10.796875 Z M 22.71875 -10.796875 "/></g></g></g><g fill="#ff3131" fill-opacity="1"><g transform="translate(362.297066, 200.821943)"><g><path d="M 10.71875 -44.234375 L 10.71875 -36.75 L 1.90625 -36.75 L 1.90625 -44.234375 Z M 10.796875 -32.625 L 10.796875 0 L 1.90625 0 L 1.90625 -32.625 Z M 10.796875 -32.625 "/></g></g></g><g clip-path="url(#3c37505568)"><g clip-path="url(#6e54d43387)"><g clip-path="url(#b7466a9cfa)"><path fill="#000000" d="M 4.042969 231.398438 L -0.00390625 225.519531 L 31.421875 203.871094 L 35.46875 209.746094 Z M 4.042969 231.398438 " fill-opacity="1" fill-rule="nonzero"/></g></g></g><g clip-path="url(#80c8d6dd2a)"><g clip-path="url(#c25b6c940c)"><g clip-path="url(#d6266976c1)"><path fill="#000000" d="M 83.808594 260.636719 L 79.757812 254.761719 L 109.992188 233.933594 L 114.039062 239.808594 Z M 83.808594 260.636719 " fill-opacity="1" fill-rule="nonzero"/></g></g></g></svg>