<svg xmlns="http://www.w3.org/2000/svg" xmlns:xlink="http://www.w3.org/1999/xlink" width="350" zoomAndPan="magnify" viewBox="0 0 262.5 74.999997" height="100" preserveAspectRatio="xMidYMid meet" version="1.0"><defs><g/></defs><g fill="#000000" fill-opacity="1"><g transform="translate(64.47694, 49.616329)"><g><path d="M 19.0625 -2.6875 C 16.988281 -0.957031 14.613281 -0.09375 11.9375 -0.09375 C 8.925781 -0.09375 6.347656 -1.164062 4.203125 -3.3125 C 2.054688 -5.457031 0.984375 -8.039062 0.984375 -11.0625 C 0.984375 -14.101562 2.054688 -16.691406 4.203125 -18.828125 C 6.347656 -20.972656 8.925781 -22.046875 11.9375 -22.046875 C 14.632812 -22.046875 17.007812 -21.171875 19.0625 -19.421875 L 15.78125 -16.171875 C 14.664062 -17.023438 13.382812 -17.453125 11.9375 -17.453125 C 10.1875 -17.453125 8.691406 -16.832031 7.453125 -15.59375 C 6.203125 -14.34375 5.578125 -12.832031 5.578125 -11.0625 C 5.578125 -9.3125 6.203125 -7.8125 7.453125 -6.5625 C 8.691406 -5.3125 10.1875 -4.6875 11.9375 -4.6875 C 13.382812 -4.6875 14.664062 -5.113281 15.78125 -5.96875 Z M 19.0625 -2.6875 "/></g></g></g><g fill="#000000" fill-opacity="1"><g transform="translate(85.513246, 49.616329)"><g><path d="M 5.578125 -14.375 C 5.953125 -15.425781 6.578125 -16.160156 7.453125 -16.578125 C 8.304688 -16.984375 9.582031 -17.1875 11.28125 -17.1875 L 11.28125 -12.5 C 9.625 -12.5 8.238281 -11.929688 7.125 -10.796875 C 6.09375 -9.785156 5.578125 -8.679688 5.578125 -7.484375 L 5.578125 0 L 0.984375 0 L 0.984375 -16.90625 L 5.578125 -16.90625 Z M 5.578125 -14.375 "/></g></g></g><g fill="#000000" fill-opacity="1"><g transform="translate(97.294888, 49.616329)"><g><path d="M 8.765625 -16.90625 C 11.097656 -16.925781 13.085938 -16.113281 14.734375 -14.46875 C 16.398438 -12.8125 17.234375 -10.820312 17.234375 -8.5 C 17.253906 -6.15625 16.441406 -4.164062 14.796875 -2.53125 C 13.160156 -0.863281 11.179688 -0.0195312 8.859375 0 C 6.515625 0.0195312 4.515625 -0.785156 2.859375 -2.421875 C 1.191406 -4.066406 0.359375 -6.0625 0.359375 -8.40625 C 0.335938 -10.738281 1.148438 -12.726562 2.796875 -14.375 C 4.429688 -16.03125 6.421875 -16.875 8.765625 -16.90625 Z M 11.75 -5.515625 C 12.5625 -6.328125 12.96875 -7.3125 12.96875 -8.46875 C 12.96875 -9.601562 12.550781 -10.585938 11.71875 -11.421875 C 10.882812 -12.203125 9.898438 -12.59375 8.765625 -12.59375 C 7.628906 -12.59375 6.65625 -12.191406 5.84375 -11.390625 C 5.03125 -10.535156 4.625 -9.550781 4.625 -8.4375 C 4.625 -7.300781 5.039062 -6.316406 5.875 -5.484375 C 6.6875 -4.671875 7.671875 -4.265625 8.828125 -4.265625 C 10.003906 -4.304688 10.976562 -4.722656 11.75 -5.515625 Z M 11.75 -5.515625 "/></g></g></g><g fill="#000000" fill-opacity="1"><g transform="translate(114.885309, 49.616329)"><g><path d="M 7.8125 0 C 6.675781 0 5.679688 -0.175781 4.828125 -0.53125 C 4.148438 -0.769531 3.445312 -1.21875 2.71875 -1.875 C 1.476562 -3.03125 0.910156 -4.492188 1.015625 -6.265625 L 1.015625 -6.625 L 4.6875 -6.5625 L 4.984375 -6.5625 L 4.984375 -6.296875 C 5.003906 -5.753906 5.125 -5.304688 5.34375 -4.953125 C 5.71875 -4.316406 6.539062 -4 7.8125 -4 C 8.863281 -4 9.617188 -4.117188 10.078125 -4.359375 C 10.316406 -4.472656 10.476562 -4.617188 10.5625 -4.796875 C 10.601562 -4.859375 10.625 -4.921875 10.625 -4.984375 L 10.671875 -5.15625 C 10.671875 -5.613281 10.304688 -5.984375 9.578125 -6.265625 C 9.296875 -6.378906 8.96875 -6.46875 8.59375 -6.53125 C 8.3125 -6.59375 7.992188 -6.644531 7.640625 -6.6875 C 6.328125 -6.820312 5.234375 -7.085938 4.359375 -7.484375 C 3.484375 -7.828125 2.765625 -8.304688 2.203125 -8.921875 C 1.410156 -9.816406 1.015625 -10.847656 1.015625 -12.015625 C 1.015625 -12.734375 1.144531 -13.398438 1.40625 -14.015625 C 1.601562 -14.492188 1.867188 -14.921875 2.203125 -15.296875 C 3.378906 -16.648438 5.269531 -17.328125 7.875 -17.328125 C 9.425781 -17.328125 10.738281 -17.019531 11.8125 -16.40625 C 12.644531 -15.945312 13.3125 -15.320312 13.8125 -14.53125 C 14.207031 -13.945312 14.484375 -13.257812 14.640625 -12.46875 C 14.679688 -12.207031 14.710938 -11.957031 14.734375 -11.71875 L 14.734375 -11.03125 L 10.765625 -11.03125 L 10.765625 -11.515625 C 10.742188 -11.609375 10.734375 -11.695312 10.734375 -11.78125 C 10.660156 -12.019531 10.570312 -12.21875 10.46875 -12.375 C 9.988281 -13.03125 9.125 -13.359375 7.875 -13.359375 C 6.039062 -13.359375 5.125 -12.972656 5.125 -12.203125 C 5.125 -11.804688 5.34375 -11.488281 5.78125 -11.25 C 6.238281 -10.96875 7.015625 -10.757812 8.109375 -10.625 C 10.617188 -10.363281 12.441406 -9.566406 13.578125 -8.234375 C 14.347656 -7.335938 14.734375 -6.3125 14.734375 -5.15625 L 14.734375 -4.921875 L 14.703125 -4.625 C 14.703125 -4.34375 14.671875 -4.082031 14.609375 -3.84375 C 14.429688 -3.144531 14.101562 -2.519531 13.625 -1.96875 C 13.070312 -1.3125 12.304688 -0.820312 11.328125 -0.5 C 10.335938 -0.164062 9.164062 0 7.8125 0 Z M 7.8125 0 "/></g></g></g><g fill="#000000" fill-opacity="1"><g transform="translate(130.605107, 49.616329)"><g><path d="M 7.8125 0 C 6.675781 0 5.679688 -0.175781 4.828125 -0.53125 C 4.148438 -0.769531 3.445312 -1.21875 2.71875 -1.875 C 1.476562 -3.03125 0.910156 -4.492188 1.015625 -6.265625 L 1.015625 -6.625 L 4.6875 -6.5625 L 4.984375 -6.5625 L 4.984375 -6.296875 C 5.003906 -5.753906 5.125 -5.304688 5.34375 -4.953125 C 5.71875 -4.316406 6.539062 -4 7.8125 -4 C 8.863281 -4 9.617188 -4.117188 10.078125 -4.359375 C 10.316406 -4.472656 10.476562 -4.617188 10.5625 -4.796875 C 10.601562 -4.859375 10.625 -4.921875 10.625 -4.984375 L 10.671875 -5.15625 C 10.671875 -5.613281 10.304688 -5.984375 9.578125 -6.265625 C 9.296875 -6.378906 8.96875 -6.46875 8.59375 -6.53125 C 8.3125 -6.59375 7.992188 -6.644531 7.640625 -6.6875 C 6.328125 -6.820312 5.234375 -7.085938 4.359375 -7.484375 C 3.484375 -7.828125 2.765625 -8.304688 2.203125 -8.921875 C 1.410156 -9.816406 1.015625 -10.847656 1.015625 -12.015625 C 1.015625 -12.734375 1.144531 -13.398438 1.40625 -14.015625 C 1.601562 -14.492188 1.867188 -14.921875 2.203125 -15.296875 C 3.378906 -16.648438 5.269531 -17.328125 7.875 -17.328125 C 9.425781 -17.328125 10.738281 -17.019531 11.8125 -16.40625 C 12.644531 -15.945312 13.3125 -15.320312 13.8125 -14.53125 C 14.207031 -13.945312 14.484375 -13.257812 14.640625 -12.46875 C 14.679688 -12.207031 14.710938 -11.957031 14.734375 -11.71875 L 14.734375 -11.03125 L 10.765625 -11.03125 L 10.765625 -11.515625 C 10.742188 -11.609375 10.734375 -11.695312 10.734375 -11.78125 C 10.660156 -12.019531 10.570312 -12.21875 10.46875 -12.375 C 9.988281 -13.03125 9.125 -13.359375 7.875 -13.359375 C 6.039062 -13.359375 5.125 -12.972656 5.125 -12.203125 C 5.125 -11.804688 5.34375 -11.488281 5.78125 -11.25 C 6.238281 -10.96875 7.015625 -10.757812 8.109375 -10.625 C 10.617188 -10.363281 12.441406 -9.566406 13.578125 -8.234375 C 14.347656 -7.335938 14.734375 -6.3125 14.734375 -5.15625 L 14.734375 -4.921875 L 14.703125 -4.625 C 14.703125 -4.34375 14.671875 -4.082031 14.609375 -3.84375 C 14.429688 -3.144531 14.101562 -2.519531 13.625 -1.96875 C 13.070312 -1.3125 12.304688 -0.820312 11.328125 -0.5 C 10.335938 -0.164062 9.164062 0 7.8125 0 Z M 7.8125 0 "/></g></g></g><g fill="#000000" fill-opacity="1"><g transform="translate(146.324906, 49.616329)"><g><path d="M 0.5 -21.328125 L 5.609375 -21.328125 L 5.609375 0 L 0.5 0 Z M 0.5 -21.328125 "/></g></g></g><g fill="#000000" fill-opacity="1"><g transform="translate(152.429044, 49.616329)"><g><path d="M 13.15625 -16.90625 L 13.15625 -12.3125 L 9.390625 -12.3125 L 9.390625 0 L 4.796875 0 L 4.796875 -12.3125 L 0.984375 -12.3125 L 0.984375 -16.90625 L 4.796875 -16.90625 L 4.796875 -22.8125 L 9.390625 -22.8125 L 9.390625 -16.90625 Z M 13.15625 -16.90625 "/></g></g></g><g fill="#004aad" fill-opacity="1"><g transform="translate(165.763447, 49.616329)"><g><path d="M 5.578125 0 L 0.984375 0 L 0.984375 -4.59375 L 5.578125 -4.59375 Z M 5.578125 0 "/></g></g></g><g fill="#ff3131" fill-opacity="1"><g transform="translate(172.330879, 49.616329)"><g><path d="M 13.125 -16.96875 L 17.71875 -16.96875 L 17.71875 0 L 13.125 0 L 13.125 -1.90625 C 12.1875 -0.675781 10.765625 -0.0625 8.859375 -0.0625 C 6.535156 -0.0390625 4.546875 -0.851562 2.890625 -2.5 C 1.222656 -4.132812 0.378906 -6.125 0.359375 -8.46875 C 0.335938 -10.78125 1.148438 -12.769531 2.796875 -14.4375 C 4.429688 -16.101562 6.421875 -16.945312 8.765625 -16.96875 C 10.691406 -16.96875 12.144531 -16.34375 13.125 -15.09375 Z M 11.75 -5.578125 C 12.5625 -6.390625 12.96875 -7.375 12.96875 -8.53125 C 12.96875 -9.707031 12.550781 -10.691406 11.71875 -11.484375 C 10.882812 -12.316406 9.910156 -12.710938 8.796875 -12.671875 C 7.640625 -12.671875 6.65625 -12.265625 5.84375 -11.453125 C 5.03125 -10.640625 4.625 -9.65625 4.625 -8.5 C 4.625 -7.363281 5.039062 -6.378906 5.875 -5.546875 C 6.6875 -4.734375 7.671875 -4.328125 8.828125 -4.328125 C 10.003906 -4.367188 10.976562 -4.785156 11.75 -5.578125 Z M 11.75 -5.578125 "/></g></g></g><g fill="#ff3131" fill-opacity="1"><g transform="translate(191.037109, 49.616329)"><g><path d="M 5.546875 -22.875 L 5.546875 -19 L 0.984375 -19 L 0.984375 -22.875 Z M 5.578125 -16.859375 L 5.578125 0 L 0.984375 0 L 0.984375 -16.859375 Z M 5.578125 -16.859375 "/></g></g></g></svg>