<svg xmlns="http://www.w3.org/2000/svg" xmlns:xlink="http://www.w3.org/1999/xlink" width="200" zoomAndPan="magnify" viewBox="0 0 150 149.999998" height="200" preserveAspectRatio="xMidYMid meet" version="1.0"><defs><clipPath id="13ad8ca0b8"><path d="M 58 97 L 106 97 L 106 118 L 58 118 Z M 58 97 " clip-rule="nonzero"/></clipPath><clipPath id="e4f2da7906"><path d="M 59.367188 96.738281 L 106.476562 113.679688 L 104.917969 118.019531 L 57.804688 101.074219 Z M 59.367188 96.738281 " clip-rule="nonzero"/></clipPath><clipPath id="8af34bae70"><path d="M 61.535156 97.515625 L 104.304688 112.902344 C 104.882812 113.109375 105.351562 113.535156 105.609375 114.085938 C 105.871094 114.640625 105.902344 115.273438 105.695312 115.847656 C 105.488281 116.425781 105.0625 116.894531 104.507812 117.152344 C 103.957031 117.414062 103.320312 117.445312 102.746094 117.238281 L 59.972656 101.851562 C 59.398438 101.644531 58.929688 101.21875 58.667969 100.667969 C 58.410156 100.113281 58.378906 99.480469 58.585938 98.90625 C 58.792969 98.328125 59.21875 97.859375 59.773438 97.601562 C 60.324219 97.339844 60.960938 97.308594 61.535156 97.515625 Z M 61.535156 97.515625 " clip-rule="nonzero"/></clipPath><clipPath id="2709d84eda"><path d="M 44 106 L 94 106 L 94 127 L 44 127 Z M 44 106 " clip-rule="nonzero"/></clipPath><clipPath id="e28382922e"><path d="M 45.800781 105.417969 L 93.921875 122.746094 L 92.363281 127.082031 L 44.242188 109.753906 Z M 45.800781 105.417969 " clip-rule="nonzero"/></clipPath><clipPath id="248b21f816"><path d="M 47.96875 106.199219 L 91.738281 121.960938 C 92.316406 122.167969 92.785156 122.59375 93.042969 123.144531 C 93.304688 123.699219 93.335938 124.332031 93.128906 124.90625 C 92.921875 125.484375 92.492188 125.953125 91.941406 126.210938 C 91.386719 126.472656 90.753906 126.503906 90.179688 126.296875 L 46.410156 110.535156 C 45.835938 110.328125 45.363281 109.902344 45.105469 109.347656 C 44.84375 108.792969 44.816406 108.160156 45.023438 107.585938 C 45.230469 107.011719 45.65625 106.542969 46.207031 106.28125 C 46.761719 106.023438 47.394531 105.992188 47.96875 106.199219 Z M 47.96875 106.199219 " clip-rule="nonzero"/></clipPath><clipPath id="3ccd53035c"><path d="M 44.523438 26.203125 L 48.496094 26.203125 L 48.496094 110.460938 L 44.523438 110.460938 Z M 44.523438 26.203125 " clip-rule="nonzero"/></clipPath><clipPath id="bfc0bc7801"><path d="M 46.511719 26.203125 C 47.039062 26.203125 47.542969 26.414062 47.914062 26.785156 C 48.289062 27.160156 48.496094 27.664062 48.496094 28.191406 L 48.496094 108.46875 C 48.496094 108.992188 48.289062 109.5 47.914062 109.871094 C 47.542969 110.246094 47.039062 110.453125 46.511719 110.453125 C 45.984375 110.453125 45.480469 110.246094 45.105469 109.871094 C 44.734375 109.5 44.523438 108.992188 44.523438 108.46875 L 44.523438 28.191406 C 44.523438 27.664062 44.734375 27.160156 45.105469 26.785156 C 45.480469 26.414062 45.984375 26.203125 46.511719 26.203125 Z M 46.511719 26.203125 " clip-rule="nonzero"/></clipPath><clipPath id="31ecfdda74"><path d="M 88.347656 39.71875 L 92.320312 39.71875 L 92.320312 126.226562 L 88.347656 126.226562 Z M 88.347656 39.71875 " clip-rule="nonzero"/></clipPath><clipPath id="0537baa1ce"><path d="M 90.332031 39.71875 C 90.859375 39.71875 91.363281 39.929688 91.738281 40.300781 C 92.109375 40.675781 92.320312 41.179688 92.320312 41.707031 L 92.320312 124.238281 C 92.320312 124.765625 92.109375 125.269531 91.738281 125.640625 C 91.363281 126.015625 90.859375 126.222656 90.332031 126.222656 C 89.804688 126.222656 89.300781 126.015625 88.929688 125.640625 C 88.554688 125.269531 88.347656 124.765625 88.347656 124.238281 L 88.347656 41.707031 C 88.347656 41.179688 88.554688 40.675781 88.929688 40.300781 C 89.300781 39.929688 89.804688 39.71875 90.332031 39.71875 Z M 90.332031 39.71875 " clip-rule="nonzero"/></clipPath><clipPath id="8768ad67ea"><path d="M 45 25 L 93 25 L 93 44 L 45 44 Z M 45 25 " clip-rule="nonzero"/></clipPath><clipPath id="8b5485c82e"><path d="M 44.527344 28.953125 L 45.707031 25.160156 L 92.804688 39.792969 L 91.625 43.585938 Z M 44.527344 28.953125 " clip-rule="nonzero"/></clipPath><clipPath id="0252b6362c"><path d="M 45.117188 27.054688 C 45.273438 26.554688 45.621094 26.132812 46.089844 25.886719 C 46.554688 25.640625 47.101562 25.59375 47.601562 25.75 L 90.90625 39.203125 C 91.410156 39.359375 91.828125 39.707031 92.074219 40.175781 C 92.320312 40.640625 92.371094 41.1875 92.214844 41.6875 C 92.058594 42.191406 91.707031 42.613281 91.242188 42.859375 C 90.773438 43.101562 90.230469 43.152344 89.726562 42.996094 L 46.425781 29.542969 C 45.921875 29.386719 45.5 29.035156 45.253906 28.570312 C 45.011719 28.105469 44.960938 27.558594 45.117188 27.054688 Z M 45.117188 27.054688 " clip-rule="nonzero"/></clipPath><clipPath id="6c55c024dd"><path d="M 51.648438 21.027344 L 55.621094 21.027344 L 55.621094 105.285156 L 51.648438 105.285156 Z M 51.648438 21.027344 " clip-rule="nonzero"/></clipPath><clipPath id="32b5fe058e"><path d="M 53.632812 21.027344 C 54.160156 21.027344 54.664062 21.238281 55.039062 21.609375 C 55.410156 21.984375 55.621094 22.488281 55.621094 23.015625 L 55.621094 103.289062 C 55.621094 103.816406 55.410156 104.324219 55.039062 104.695312 C 54.664062 105.066406 54.160156 105.277344 53.632812 105.277344 C 53.105469 105.277344 52.601562 105.066406 52.230469 104.695312 C 51.855469 104.324219 51.648438 103.816406 51.648438 103.289062 L 51.648438 23.015625 C 51.648438 22.488281 51.855469 21.984375 52.230469 21.609375 C 52.601562 21.238281 53.105469 21.027344 53.632812 21.027344 Z M 53.632812 21.027344 " clip-rule="nonzero"/></clipPath><clipPath id="2b21c84afb"><path d="M 95.632812 34.375 L 99.605469 34.375 L 99.605469 121.050781 L 95.632812 121.050781 Z M 95.632812 34.375 " clip-rule="nonzero"/></clipPath><clipPath id="64ff7132f1"><path d="M 97.617188 34.375 C 98.144531 34.375 98.652344 34.582031 99.023438 34.957031 C 99.394531 35.328125 99.605469 35.835938 99.605469 36.359375 L 99.605469 119.058594 C 99.605469 119.585938 99.394531 120.09375 99.023438 120.464844 C 98.652344 120.835938 98.144531 121.046875 97.617188 121.046875 C 97.09375 121.046875 96.585938 120.835938 96.214844 120.464844 C 95.84375 120.09375 95.632812 119.585938 95.632812 119.058594 L 95.632812 36.359375 C 95.632812 35.835938 95.84375 35.328125 96.214844 34.957031 C 96.585938 34.582031 97.09375 34.375 97.617188 34.375 Z M 97.617188 34.375 " clip-rule="nonzero"/></clipPath><clipPath id="98176e87c2"><path d="M 52 20 L 100 20 L 100 38 L 52 38 Z M 52 20 " clip-rule="nonzero"/></clipPath><clipPath id="8909611d8a"><path d="M 51.648438 23.648438 L 52.828125 19.855469 L 99.929688 34.488281 L 98.75 38.28125 Z M 51.648438 23.648438 " clip-rule="nonzero"/></clipPath><clipPath id="333e7fc88f"><path d="M 52.238281 21.753906 C 52.394531 21.25 52.746094 20.828125 53.210938 20.582031 C 53.675781 20.339844 54.222656 20.289062 54.726562 20.445312 L 98.027344 33.898438 C 98.53125 34.054688 98.953125 34.40625 99.199219 34.871094 C 99.441406 35.335938 99.492188 35.882812 99.335938 36.386719 C 99.179688 36.886719 98.832031 37.308594 98.363281 37.554688 C 97.898438 37.800781 97.351562 37.847656 96.851562 37.691406 L 53.546875 24.238281 C 53.042969 24.082031 52.625 23.734375 52.378906 23.265625 C 52.132812 22.800781 52.082031 22.253906 52.238281 21.753906 Z M 52.238281 21.753906 " clip-rule="nonzero"/></clipPath><clipPath id="78108b56d1"><path d="M 58.933594 16.171875 L 62.90625 16.171875 L 62.90625 100.425781 L 58.933594 100.425781 Z M 58.933594 16.171875 " clip-rule="nonzero"/></clipPath><clipPath id="556c9d41b0"><path d="M 60.917969 16.171875 C 61.445312 16.171875 61.953125 16.378906 62.324219 16.753906 C 62.695312 17.125 62.90625 17.628906 62.90625 18.15625 L 62.90625 98.433594 C 62.90625 98.960938 62.695312 99.464844 62.324219 99.835938 C 61.953125 100.210938 61.445312 100.417969 60.917969 100.417969 C 60.394531 100.417969 59.886719 100.210938 59.515625 99.835938 C 59.140625 99.464844 58.933594 98.960938 58.933594 98.433594 L 58.933594 18.15625 C 58.933594 17.628906 59.140625 17.125 59.515625 16.753906 C 59.886719 16.378906 60.394531 16.171875 60.917969 16.171875 Z M 60.917969 16.171875 " clip-rule="nonzero"/></clipPath><clipPath id="5e60fd29ae"><path d="M 102.917969 29.070312 L 106.890625 29.070312 L 106.890625 116.679688 L 102.917969 116.679688 Z M 102.917969 29.070312 " clip-rule="nonzero"/></clipPath><clipPath id="0e6f84f1fe"><path d="M 104.90625 29.070312 C 105.433594 29.070312 105.9375 29.28125 106.308594 29.652344 C 106.683594 30.027344 106.890625 30.53125 106.890625 31.058594 L 106.890625 114.675781 C 106.890625 115.203125 106.683594 115.707031 106.308594 116.082031 C 105.9375 116.453125 105.433594 116.664062 104.90625 116.664062 C 104.378906 116.664062 103.875 116.453125 103.5 116.082031 C 103.128906 115.707031 102.917969 115.203125 102.917969 114.675781 L 102.917969 31.058594 C 102.917969 30.53125 103.128906 30.027344 103.5 29.652344 C 103.875 29.28125 104.378906 29.070312 104.90625 29.070312 Z M 104.90625 29.070312 " clip-rule="nonzero"/></clipPath><clipPath id="30f6037001"><path d="M 59 15 L 107 15 L 107 33 L 59 33 Z M 59 15 " clip-rule="nonzero"/></clipPath><clipPath id="ae5a7deb9d"><path d="M 58.9375 18.792969 L 60.113281 14.996094 L 107.214844 29.632812 L 106.035156 33.425781 Z M 58.9375 18.792969 " clip-rule="nonzero"/></clipPath><clipPath id="9be4f73825"><path d="M 59.523438 16.894531 C 59.679688 16.390625 60.03125 15.972656 60.496094 15.726562 C 60.964844 15.480469 61.507812 15.429688 62.011719 15.585938 L 105.316406 29.042969 C 105.816406 29.199219 106.238281 29.546875 106.484375 30.011719 C 106.730469 30.480469 106.777344 31.023438 106.621094 31.527344 C 106.464844 32.03125 106.117188 32.449219 105.648438 32.695312 C 105.183594 32.941406 104.640625 32.992188 104.136719 32.835938 L 60.832031 19.382812 C 60.328125 19.226562 59.910156 18.875 59.664062 18.410156 C 59.417969 17.941406 59.367188 17.398438 59.523438 16.894531 Z M 59.523438 16.894531 " clip-rule="nonzero"/></clipPath><clipPath id="c64a9f86c6"><path d="M 44 96 L 63 96 L 63 111 L 44 111 Z M 44 96 " clip-rule="nonzero"/></clipPath><clipPath id="b006e91c07"><path d="M 46.195312 111.089844 L 43.941406 107.816406 L 61.449219 95.753906 L 63.703125 99.027344 Z M 46.195312 111.089844 " clip-rule="nonzero"/></clipPath><clipPath id="a58dce48da"><path d="M 45.066406 109.453125 C 44.769531 109.019531 44.652344 108.484375 44.75 107.964844 C 44.84375 107.449219 45.140625 106.988281 45.574219 106.691406 L 59.800781 96.890625 C 60.234375 96.589844 60.769531 96.476562 61.289062 96.574219 C 61.804688 96.667969 62.265625 96.964844 62.5625 97.398438 C 62.863281 97.832031 62.976562 98.367188 62.882812 98.886719 C 62.785156 99.402344 62.488281 99.863281 62.054688 100.160156 L 47.828125 109.960938 C 47.394531 110.261719 46.859375 110.375 46.34375 110.28125 C 45.824219 110.183594 45.367188 109.886719 45.066406 109.453125 Z M 45.066406 109.453125 " clip-rule="nonzero"/></clipPath><clipPath id="9449971838"><path d="M 89 113 L 107 113 L 107 127 L 89 127 Z M 89 113 " clip-rule="nonzero"/></clipPath><clipPath id="ef061f8676"><path d="M 90.601562 127.363281 L 88.347656 124.089844 L 105.191406 112.488281 L 107.445312 115.757812 Z M 90.601562 127.363281 " clip-rule="nonzero"/></clipPath><clipPath id="ffe65c5714"><path d="M 89.476562 125.726562 C 89.175781 125.292969 89.0625 124.757812 89.15625 124.238281 C 89.253906 123.722656 89.550781 123.261719 89.984375 122.964844 L 103.546875 113.621094 C 103.980469 113.320312 104.515625 113.207031 105.035156 113.300781 C 105.554688 113.398438 106.011719 113.695312 106.3125 114.128906 C 106.609375 114.5625 106.722656 115.097656 106.628906 115.617188 C 106.53125 116.132812 106.234375 116.59375 105.800781 116.890625 L 92.238281 126.234375 C 91.804688 126.535156 91.269531 126.648438 90.75 126.554688 C 90.234375 126.457031 89.773438 126.160156 89.476562 125.726562 Z M 89.476562 125.726562 " clip-rule="nonzero"/></clipPath></defs><g clip-path="url(#13ad8ca0b8)"><g clip-path="url(#e4f2da7906)"><g clip-path="url(#8af34bae70)"><path fill="#7ed957" d="M 59.367188 96.738281 L 106.476562 113.679688 L 104.917969 118.019531 L 57.804688 101.074219 Z M 59.367188 96.738281 " fill-opacity="1" fill-rule="nonzero"/></g></g></g><g clip-path="url(#2709d84eda)"><g clip-path="url(#e28382922e)"><g clip-path="url(#248b21f816)"><path fill="#ff3131" d="M 45.800781 105.417969 L 93.90625 122.738281 L 92.34375 127.074219 L 44.242188 109.753906 Z M 45.800781 105.417969 " fill-opacity="1" fill-rule="nonzero"/></g></g></g><g clip-path="url(#3ccd53035c)"><g clip-path="url(#bfc0bc7801)"><path fill="#000000" d="M 44.523438 26.203125 L 48.496094 26.203125 L 48.496094 110.460938 L 44.523438 110.460938 Z M 44.523438 26.203125 " fill-opacity="1" fill-rule="nonzero"/></g></g><g clip-path="url(#31ecfdda74)"><g clip-path="url(#0537baa1ce)"><path fill="#000000" d="M 88.347656 39.71875 L 92.320312 39.71875 L 92.320312 126.226562 L 88.347656 126.226562 Z M 88.347656 39.71875 " fill-opacity="1" fill-rule="nonzero"/></g></g><g clip-path="url(#8768ad67ea)"><g clip-path="url(#8b5485c82e)"><g clip-path="url(#0252b6362c)"><path fill="#000000" d="M 44.527344 28.953125 L 45.707031 25.160156 L 92.804688 39.792969 L 91.625 43.585938 Z M 44.527344 28.953125 " fill-opacity="1" fill-rule="nonzero"/></g></g></g><g clip-path="url(#6c55c024dd)"><g clip-path="url(#32b5fe058e)"><path fill="#000000" d="M 51.648438 21.027344 L 55.621094 21.027344 L 55.621094 105.285156 L 51.648438 105.285156 Z M 51.648438 21.027344 " fill-opacity="1" fill-rule="nonzero"/></g></g><g clip-path="url(#2b21c84afb)"><g clip-path="url(#64ff7132f1)"><path fill="#000000" d="M 95.632812 34.375 L 99.605469 34.375 L 99.605469 121.050781 L 95.632812 121.050781 Z M 95.632812 34.375 " fill-opacity="1" fill-rule="nonzero"/></g></g><g clip-path="url(#98176e87c2)"><g clip-path="url(#8909611d8a)"><g clip-path="url(#333e7fc88f)"><path fill="#000000" d="M 51.648438 23.648438 L 52.828125 19.855469 L 99.929688 34.488281 L 98.75 38.28125 Z M 51.648438 23.648438 " fill-opacity="1" fill-rule="nonzero"/></g></g></g><g clip-path="url(#78108b56d1)"><g clip-path="url(#556c9d41b0)"><path fill="#000000" d="M 58.933594 16.171875 L 62.90625 16.171875 L 62.90625 100.425781 L 58.933594 100.425781 Z M 58.933594 16.171875 " fill-opacity="1" fill-rule="nonzero"/></g></g><g clip-path="url(#5e60fd29ae)"><g clip-path="url(#0e6f84f1fe)"><path fill="#000000" d="M 102.917969 29.070312 L 106.890625 29.070312 L 106.890625 116.664062 L 102.917969 116.664062 Z M 102.917969 29.070312 " fill-opacity="1" fill-rule="nonzero"/></g></g><g clip-path="url(#30f6037001)"><g clip-path="url(#ae5a7deb9d)"><g clip-path="url(#9be4f73825)"><path fill="#000000" d="M 58.9375 18.792969 L 60.113281 14.996094 L 107.214844 29.632812 L 106.035156 33.425781 Z M 58.9375 18.792969 " fill-opacity="1" fill-rule="nonzero"/></g></g></g><g clip-path="url(#c64a9f86c6)"><g clip-path="url(#b006e91c07)"><g clip-path="url(#a58dce48da)"><path fill="#000000" d="M 46.195312 111.089844 L 43.941406 107.816406 L 61.433594 95.765625 L 63.6875 99.035156 Z M 46.195312 111.089844 " fill-opacity="1" fill-rule="nonzero"/></g></g></g><g clip-path="url(#9449971838)"><g clip-path="url(#ef061f8676)"><g clip-path="url(#ffe65c5714)"><path fill="#000000" d="M 90.601562 127.363281 L 88.347656 124.089844 L 105.179688 112.496094 L 107.433594 115.765625 Z M 90.601562 127.363281 " fill-opacity="1" fill-rule="nonzero"/></g></g></g></svg>